<svg xmlns="http://www.w3.org/2000/svg" xmlns:xlink="http://www.w3.org/1999/xlink" width="35" height="48.03" viewBox="0 0 35 48.03">
  <metadata><?xpacket begin="﻿" id="W5M0MpCehiHzreSzNTczkc9d"?>
<x:xmpmeta xmlns:x="adobe:ns:meta/" x:xmptk="Adobe XMP Core 5.6-c138 79.159824, 2016/09/14-01:09:01        ">
   <rdf:RDF xmlns:rdf="http://www.w3.org/1999/02/22-rdf-syntax-ns#">
      <rdf:Description rdf:about=""/>
   </rdf:RDF>
</x:xmpmeta>
                                                                                                    
                                                                                                    
                                                                                                    
                                                                                                    
                                                                                                    
                                                                                                    
                                                                                                    
                                                                                                    
                                                                                                    
                                                                                                    
                                                                                                    
                                                                                                    
                                                                                                    
                                                                                                    
                                                                                                    
                                                                                                    
                                                                                                    
                                                                                                    
                                                                                                    
                                                                                                    
                           
<?xpacket end="w"?></metadata>
<defs>
    <style>
      .cls-1 {
        fill: #fff;
        fill-rule: evenodd;
        opacity: 0.2;
        filter: url(#filter);
      }
    </style>
    <filter id="filter" x="534" y="3413.97" width="35" height="48.03" filterUnits="userSpaceOnUse">
      <feFlood result="flood" flood-color="#0f0f0f"/>
      <feComposite result="composite" operator="in" in2="SourceGraphic"/>
      <feBlend result="blend" in2="SourceGraphic"/>
    </filter>
  </defs>
  <path id="Фигура_3" data-name="Фигура 3" class="cls-1" d="M552.5,3461.44c-0.055.09-.111,0.19-0.165,0.29a0.463,0.463,0,0,1-.626.16l-0.223-.15a0.425,0.425,0,0,1-.624.19c-5.119-2.85-10.237-5.71-15.371-8.54a0.436,0.436,0,0,1,.342-0.79c0.917,0.34,1.827.7,2.734,1.06q-2.16-1.365-4.347-2.68a0.42,0.42,0,0,1,.433-0.72c2.18,1.23,4.347,2.47,6.493,3.76-1.687-1.24-3.332-2.54-4.9-3.95-0.361-.32.114-0.83,0.509-0.63q2.72,1.38,5.353,2.91c-0.186-.16-0.375-0.32-0.56-0.48a0.3,0.3,0,0,1,.294-0.49l1.4,0.33a0.281,0.281,0,0,1-.153.54c-0.07-.02-0.139-0.03-0.209-0.05q1.95,1.605,3.982,3.07c0.6,0.39,1.2.8,1.794,1.2-0.144-.67-0.273-1.34-0.383-2.01a21.725,21.725,0,0,1,.022-13.04,40.839,40.839,0,0,1,17.944-27.36,0.428,0.428,0,0,1,.506.68c-0.387.29-.766,0.6-1.141,0.9a0.351,0.351,0,0,1-.07.16c-0.765,1.01-1.577,2.04-2.412,3.1,0.989-.87,1.994-1.73,3.007-2.56,0.464-.39.932-0.78,1.407-1.15a0.419,0.419,0,0,1,.556.02c0.047-.04.094-0.09,0.141-0.13,0.417-.36,1.017.25,0.6,0.61-0.6.53-1.191,1.07-1.779,1.61a56.06,56.06,0,0,0-6.2,6.83,37.126,37.126,0,0,1,7.775-6.38c0.295-.18.547,0.29,0.256,0.47a37.572,37.572,0,0,0-16.612,24.75,34.4,34.4,0,0,0-.053,11.47c0.682-.87,1.351-1.75,2-2.65,1.417-2.35,2.927-4.66,4.531-6.91a0.445,0.445,0,0,1,.554-0.15c0.4-.68.791-1.35,1.2-2.02a0.457,0.457,0,0,1,.789.46c-0.481.88-.974,1.76-1.472,2.64a0.468,0.468,0,0,1,.33.23c0.151-.17.3-0.34,0.453-0.5a0.463,0.463,0,0,1,.722.56c-2.884,4.8-5.66,9.66-8.374,14.55A0.454,0.454,0,0,1,552.5,3461.44Zm-1.764-3.52,0.05,0.03c0.111-.21.221-0.43,0.333-0.64l-0.416.45C550.71,3457.81,550.719,3457.87,550.731,3457.92Zm-0.407.93c-0.1-.06-0.2-0.13-0.3-0.19a0.4,0.4,0,0,1-.113.17c0.124,0.08.248,0.15,0.372,0.23A0.48,0.48,0,0,1,550.324,3458.85Zm-1.255-.64c-0.019-.07-0.034-0.14-0.053-0.21q-2.988-1.92-6.015-3.79l-1.473-.9c2.409,1.78,4.926,3.4,7.481,4.97A0.39,0.39,0,0,0,549.069,3458.21Zm3.123,1.88c0-.01.006-0.01,0.009-0.01l-1.149-.75a0.963,0.963,0,0,1-.146.11l1.212,0.72A0.525,0.525,0,0,0,552.192,3460.09Zm-0.688-26.35a28.4,28.4,0,0,1,1.254-2.59,44.5,44.5,0,0,1,3.78-6.83,39.963,39.963,0,0,0-5.769,10.92c0.19-.38.387-0.75,0.589-1.12C551.409,3433.99,551.451,3433.86,551.5,3433.74Zm4.667-3.95c-0.618.94-1.2,1.89-1.755,2.86-0.385,1.03-.728,2.08-1.035,3.14A45.253,45.253,0,0,1,556.171,3429.79Zm-6.972,11.57a39.183,39.183,0,0,0-.538,5.19,39,39,0,0,1,.849-4.65c0.1-.6.212-1.2,0.338-1.79,0.041-.35.085-0.7,0.142-1.06Q549.546,3440.205,549.2,3441.36Zm1.69,4.44a44.429,44.429,0,0,1,1.09-7.87,25,25,0,0,0-1.175,8.76C550.83,3446.39,550.856,3446.1,550.889,3445.8Zm-1.056,1.1a41.329,41.329,0,0,0,.627,9.7c0.222-.27.44-0.54,0.658-0.8A52.184,52.184,0,0,1,549.833,3446.9Zm4.82,8.78q-0.87,1.305-1.779,2.58a0.467,0.467,0,0,1-.859-0.26l-0.361.51c0.368,0.23.739,0.45,1.112,0.68,0.179-.37.339-0.76,0.516-1.07C553.734,3457.3,554.2,3456.49,554.653,3455.68Z" transform="translate(-534 -3413.97)"/>
</svg>
