<svg xmlns="http://www.w3.org/2000/svg" xmlns:xlink="http://www.w3.org/1999/xlink" width="35.625" height="33.19" viewBox="0 0 35.625 33.19">
  <metadata><?xpacket begin="﻿" id="W5M0MpCehiHzreSzNTczkc9d"?>
<x:xmpmeta xmlns:x="adobe:ns:meta/" x:xmptk="Adobe XMP Core 5.6-c138 79.159824, 2016/09/14-01:09:01        ">
   <rdf:RDF xmlns:rdf="http://www.w3.org/1999/02/22-rdf-syntax-ns#">
      <rdf:Description rdf:about=""/>
   </rdf:RDF>
</x:xmpmeta>
                                                                                                    
                                                                                                    
                                                                                                    
                                                                                                    
                                                                                                    
                                                                                                    
                                                                                                    
                                                                                                    
                                                                                                    
                                                                                                    
                                                                                                    
                                                                                                    
                                                                                                    
                                                                                                    
                                                                                                    
                                                                                                    
                                                                                                    
                                                                                                    
                                                                                                    
                                                                                                    
                           
<?xpacket end="w"?></metadata>
<defs>
    <style>
      .cls-1 {
        fill: #fff;
        fill-rule: evenodd;
        filter: url(#filter);
      }
    </style>
    <filter id="filter" x="702.469" y="1367.06" width="35.625" height="33.19" filterUnits="userSpaceOnUse">
      <feFlood result="flood" flood-color="#e40d0d"/>
      <feComposite result="composite" operator="in" in2="SourceGraphic"/>
      <feBlend result="blend" in2="SourceGraphic"/>
    </filter>
  </defs>
  <path id="Фигура_1" data-name="Фигура 1" class="cls-1" d="M737.369,1391.79c-2.883-1.08-5.691-2.34-8.566-3.43a0.87,0.87,0,0,0-.685,1.6c1.275,0.63,2.567,1.22,3.858,1.81q-6.391.51-12.784,1.01c-2.868.23-13.312,2.69-13.945-1.67-0.16-1.09,1.975-3.77,2.588-4.87q2.179-3.93,4.584-7.72c2.313-3.64,4.865-7.1,7.415-10.58a0.543,0.543,0,0,0-.853-0.67,134.11,134.11,0,0,0-11.869,16.4c-1.558,2.51-5.7,7.09-4.4,10.24,1.339,3.25,6.567,2,9.065,1.81q10.422-.81,20.842-1.64a14.807,14.807,0,0,0-4.891,4.8c-0.524.96,0.788,1.71,1.559,1.22,1.45-.92,2.589-2.37,3.952-3.43a34.853,34.853,0,0,1,4.377-2.91A1.146,1.146,0,0,0,737.369,1391.79Z" transform="translate(-702.469 -1367.06)"/>
</svg>
