<svg xmlns="http://www.w3.org/2000/svg" xmlns:xlink="http://www.w3.org/1999/xlink" width="72.934" height="48.09" viewBox="0 0 72.934 48.09">
  <metadata><?xpacket begin="﻿" id="W5M0MpCehiHzreSzNTczkc9d"?>
<x:xmpmeta xmlns:x="adobe:ns:meta/" x:xmptk="Adobe XMP Core 5.6-c138 79.159824, 2016/09/14-01:09:01        ">
   <rdf:RDF xmlns:rdf="http://www.w3.org/1999/02/22-rdf-syntax-ns#">
      <rdf:Description rdf:about=""/>
   </rdf:RDF>
</x:xmpmeta>
                                                                                                    
                                                                                                    
                                                                                                    
                                                                                                    
                                                                                                    
                                                                                                    
                                                                                                    
                                                                                                    
                                                                                                    
                                                                                                    
                                                                                                    
                                                                                                    
                                                                                                    
                                                                                                    
                                                                                                    
                                                                                                    
                                                                                                    
                                                                                                    
                                                                                                    
                                                                                                    
                           
<?xpacket end="w"?></metadata>
<defs>
    <style>
      .cls-1 {
        fill: #fff;
        fill-rule: evenodd;
        opacity: 0.2;
        filter: url(#filter);
      }
    </style>
    <filter id="filter" x="936.406" y="3263.41" width="72.934" height="48.09" filterUnits="userSpaceOnUse">
      <feFlood result="flood" flood-color="#0f0f0f"/>
      <feComposite result="composite" operator="in" in2="SourceGraphic"/>
      <feBlend result="blend" in2="SourceGraphic"/>
    </filter>
  </defs>
  <path id="Фигура_2" data-name="Фигура 2" class="cls-1" d="M937.464,3271.54c5.8-4.27,13.186-3.38,19.856-2.38a114.585,114.585,0,0,1,13.584,2.75,104.32,104.32,0,0,1,10.217,7.21,69.846,69.846,0,0,1,14.085,14.46,59.989,59.989,0,0,1,3.2,7.22c-1.7-1.59-3.449-3.11-5.254-4.58-0.948-1.04-1.929-2.06-2.961-3.03a0.66,0.66,0,0,0-.822-0.12,0.765,0.765,0,0,0-.679,1.15c0.1,0.14.2,0.27,0.3,0.4a0.786,0.786,0,0,0,.194.4l0.846,0.96q3.647,4.785,7.292,9.55c1.017,1.64,1.989,3.3,2.915,5a0.292,0.292,0,0,1-.02.09,0.666,0.666,0,0,0,.64.8,0.7,0.7,0,0,0,.97-0.28c0.24-.64.47-1.29,0.71-1.94a0.908,0.908,0,0,0,.32-0.54,0.675,0.675,0,0,0,.63-0.83c-0.06-.24-0.11-0.48-0.17-0.72,2.22-6.09,4.23-12.25,5.98-18.5,0.25-.89-1.06-1.15-1.36-0.32-0.49,1.37-.97,2.73-1.45,4.09,0.1-.69.2-1.39,0.29-2.09a0.684,0.684,0,0,0-1.31-.38c0.05-.32.11-0.64,0.16-0.96a0.616,0.616,0,0,0-1.2-.28q-0.63,3.345-1.28,6.69c-0.42,1.85-.88,3.69-1.4,5.51a50.191,50.191,0,0,0-6.54-14.9,35.964,35.964,0,0,0-14.348-11.9c-0.741-.6-1.5-1.19-2.268-1.75-6.085-4.45-13.312-8.09-20.9-8.81a26.751,26.751,0,0,0-11.408,1.45,21.74,21.74,0,0,0-5.214,2.17,0.609,0.609,0,0,0-.311.41,33.891,33.891,0,0,0-4.042,2.8C936.028,3270.89,936.718,3272.09,937.464,3271.54Zm62.786,31.05c-0.16-.16-0.312-0.31-0.469-0.46-0.212-.68-0.434-1.36-0.67-2.03C999.516,3300.92,999.891,3301.75,1000.25,3302.59Zm-5.63-14.99a45.979,45.979,0,0,1,4.794,10.23,53.826,53.826,0,0,0-4.218-6.51,58.733,58.733,0,0,0-9.5-12.82A32.8,32.8,0,0,1,994.62,3287.6Zm-16.455-13.2c0.794,0.33,1.576.69,2.345,1.06a59.013,59.013,0,0,1,9.131,9.44,85.029,85.029,0,0,0-10.062-8.67c-1.28-.94-2.612-1.9-3.986-2.83C976.458,3273.71,977.316,3274.04,978.165,3274.4Zm-18.823-9.28a41.821,41.821,0,0,1,16.543,6.89q-2.391-.855-4.845-1.53a46.706,46.706,0,0,0-12.742-5.5C958.646,3265.02,958.993,3265.06,959.342,3265.12Zm-12.974,1.32c6.645-1.8,13.36-.22,19.645,2.8-3.438-.74-6.915-1.3-10.379-1.77a39.068,39.068,0,0,0-11.161-.25C945.1,3266.94,945.728,3266.68,946.368,3266.44Z" transform="translate(-936.406 -3263.41)"/>
</svg>
