<svg xmlns="http://www.w3.org/2000/svg" xmlns:xlink="http://www.w3.org/1999/xlink" width="81" height="67.97" viewBox="0 0 81 67.97">
  <metadata><?xpacket begin="﻿" id="W5M0MpCehiHzreSzNTczkc9d"?>
<x:xmpmeta xmlns:x="adobe:ns:meta/" x:xmptk="Adobe XMP Core 5.6-c138 79.159824, 2016/09/14-01:09:01        ">
   <rdf:RDF xmlns:rdf="http://www.w3.org/1999/02/22-rdf-syntax-ns#">
      <rdf:Description rdf:about=""/>
   </rdf:RDF>
</x:xmpmeta>
                                                                                                    
                                                                                                    
                                                                                                    
                                                                                                    
                                                                                                    
                                                                                                    
                                                                                                    
                                                                                                    
                                                                                                    
                                                                                                    
                                                                                                    
                                                                                                    
                                                                                                    
                                                                                                    
                                                                                                    
                                                                                                    
                                                                                                    
                                                                                                    
                                                                                                    
                                                                                                    
                           
<?xpacket end="w"?></metadata>
<defs>
    <style>
      .cls-1 {
        fill: #fff;
        fill-rule: evenodd;
        opacity: 0.2;
        filter: url(#filter);
      }
    </style>
    <filter id="filter" x="628" y="4918.03" width="81" height="67.97" filterUnits="userSpaceOnUse">
      <feFlood result="flood" flood-color="#0f0f0f"/>
      <feComposite result="composite" operator="in" in2="SourceGraphic"/>
      <feBlend result="blend" in2="SourceGraphic"/>
    </filter>
  </defs>
  <path id="Фигура_4" data-name="Фигура 4" class="cls-1" d="M707.768,4918.51c-0.032,6.26.195,13.13-3.058,18.75-3.612,6.24-10.039,8.7-16.658,5.73-4.526-2.02-8.343-4.6-13.383-5.27a19.437,19.437,0,0,0-12.953,2.42c-7.613,4.83-7.155,14.05-8.014,21.91a26.863,26.863,0,0,1-1.6,6.9c-0.507-.54-1.011-1.09-1.527-1.62,0.1-.17.2-0.33,0.3-0.5a0.912,0.912,0,0,0-1.359-1.18c-0.1.1-.2,0.2-0.3,0.29-0.4-.4-0.8-0.81-1.205-1.22a0.948,0.948,0,0,0-.748-0.28c0.541-1.06-.965-2.12-1.588-1.04a97.355,97.355,0,0,1-7.086,10.57,55.735,55.735,0,0,1-10.241,9.35,0.947,0.947,0,0,0,.752,1.64,0.841,0.841,0,0,0,1.062,1.01l26.75-7.62a1.037,1.037,0,0,0,.571-1.54,0.957,0.957,0,0,0,.475-1.05,0.82,0.82,0,0,0-.756-1.07q-1.754-2.085-3.581-4.1c0.23-.51.443-1.04,0.631-1.59,3.329-9.69-.994-24.26,11.351-28.67,7-2.49,13.375.03,19.563,3.18,3.754,1.92,7.673,3.42,11.9,2.18,11.581-3.4,12.333-17.31,11.814-27.1C708.843,4917.89,707.772,4917.78,707.768,4918.51Zm-67.848,62c0.381-.35.764-0.69,1.15-1.04a1.044,1.044,0,0,0,.14.43C640.784,4980.11,640.354,4980.32,639.92,4980.51Zm7-1.9,0.8-.3a0.892,0.892,0,0,0,.815.24l1.734-.33q-2.184.57-4.378,1.11Q646.421,4978.985,646.925,4978.61Zm5.578-3.46c0.518-.39,1.027-0.8,1.529-1.22,0.264,0.3.519,0.61,0.78,0.91C654.034,4974.92,653.264,4975.02,652.5,4975.15Zm-2.179-5.3c-0.878.61-1.743,1.23-2.6,1.87,0.629-.88,1.242-1.77,1.824-2.69C649.809,4969.3,650.065,4969.58,650.324,4969.85Z" transform="translate(-628 -4918.03)"/>
</svg>
